<?xml version="1.0" encoding="UTF-8"?>
<!-- Generator: visioncortex VTracer 0.6.12 -->
<svg version="1.1" xmlns="http://www.w3.org/2000/svg" viewBox="0 0 2826 810" width="2826" height="810">
<path d="M0 0 C1.042 -0.002 2.084 -0.003 3.157 -0.005 C6.624 -0.009 10.091 -0.006 13.558 -0.002 C16.054 -0.004 18.55 -0.006 21.046 -0.008 C27.111 -0.012 33.176 -0.011 39.241 -0.008 C44.18 -0.006 49.12 -0.006 54.059 -0.007 C54.765 -0.007 55.47 -0.007 56.197 -0.007 C57.63 -0.008 59.063 -0.008 60.497 -0.008 C73.925 -0.011 87.354 -0.008 100.782 -0.002 C112.257 0.002 123.732 0.001 135.207 -0.003 C148.571 -0.009 161.934 -0.011 175.297 -0.008 C176.728 -0.007 178.16 -0.007 179.592 -0.007 C179.944 -0.007 179.944 -0.007 181.726 -0.006 C186.642 -0.006 191.558 -0.007 196.474 -0.009 C203.127 -0.012 209.779 -0.01 216.432 -0.004 C218.855 -0.003 221.279 -0.003 223.703 -0.006 C235.565 -0.016 247.407 0.089 259.261 0.573 C260.249 0.611 261.238 0.65 262.257 0.69 C263.156 0.731 264.056 0.773 264.982 0.815 C265.775 0.851 266.567 0.887 267.384 0.924 C269.196 1.127 269.196 1.127 270.196 2.127 C271.749 12.065 271.382 22.353 271.381 32.385 C271.383 35.215 271.401 38.045 271.42 40.875 C271.423 42.679 271.425 44.483 271.426 46.287 C271.433 47.131 271.44 47.975 271.448 48.844 C271.424 54.784 271.424 54.784 269.196 58.127 C266.19 59.129 264.218 59.25 261.078 59.247 C260.546 59.248 260.546 59.248 257.85 59.251 C257.263 59.25 257.263 59.25 254.29 59.241 C253.668 59.241 253.668 59.241 250.518 59.241 C247.054 59.24 243.59 59.235 240.126 59.228 C236.391 59.222 232.656 59.221 228.922 59.22 C222.439 59.217 215.957 59.211 209.474 59.202 C200.06 59.19 190.645 59.184 181.23 59.179 C165.899 59.172 150.569 59.161 135.238 59.147 C134.32 59.147 133.402 59.146 132.456 59.145 C124.103 59.137 115.75 59.13 107.398 59.122 C101.881 59.117 96.364 59.112 90.846 59.106 C89.94 59.106 89.034 59.105 88.101 59.104 C72.871 59.09 57.642 59.08 42.412 59.074 C33.883 59.07 25.353 59.063 16.823 59.052 C-44.642 58.97 -44.642 58.97 -65.924 59.395 C-67.549 59.427 -69.175 59.454 -70.8 59.477 C-72.937 59.509 -75.073 59.56 -77.209 59.617 C-78.355 59.643 -79.501 59.669 -80.682 59.696 C-84.234 60.186 -86.684 61.398 -89.804 63.127 C-91.315 63.618 -92.836 64.08 -94.367 64.502 C-98.611 65.86 -100.837 67.747 -103.804 71.127 C-104.61 71.703 -105.416 72.279 -106.246 72.873 C-109.331 75.591 -110.426 77.966 -111.992 81.752 C-112.481 82.899 -112.969 84.047 -113.472 85.229 C-117.284 95.754 -117.084 106.376 -117.035 117.416 C-117.034 119.205 -117.033 120.994 -117.034 122.783 C-117.032 126.53 -117.024 130.277 -117.01 134.024 C-116.993 138.753 -116.99 143.482 -116.99 148.211 C-116.99 159.517 -116.932 170.822 -116.804 182.127 C-116.797 182.816 -116.79 183.504 -116.783 184.213 C-116.738 188.235 -116.655 192.255 -116.543 196.275 C-116.529 197.191 -116.516 198.106 -116.502 199.049 C-116.281 204.958 -114.753 209.041 -111.804 214.127 C-111.221 215.502 -110.638 216.877 -110.054 218.252 C-108.052 222.353 -105.182 224.439 -101.414 226.9 C-100.883 227.305 -100.352 227.71 -99.804 228.127 C-99.804 228.787 -99.804 229.447 -99.804 230.127 C-85.533 237.705 -71.452 237.831 -55.688 237.71 C-53.292 237.711 -50.895 237.713 -48.498 237.718 C-42.702 237.723 -36.907 237.705 -31.111 237.676 C-24.345 237.644 -17.58 237.64 -10.814 237.637 C1.263 237.631 13.341 237.602 25.419 237.559 C37.11 237.517 48.802 237.489 60.494 237.477 C61.215 237.476 61.936 237.476 62.678 237.475 C65.577 237.472 68.475 237.469 71.373 237.466 C83.907 237.453 96.441 237.43 108.974 237.404 C110.994 237.4 113.014 237.397 115.033 237.393 C122.71 237.379 130.386 237.359 138.063 237.332 C140.383 237.324 142.703 237.318 145.023 237.313 C184.582 237.235 184.582 237.235 196.758 225.502 C197.247 225.042 197.735 224.582 198.238 224.108 C205.971 216.047 206.891 205.353 207.196 194.689 C207.259 193.533 207.322 192.376 207.387 191.184 C207.427 190.073 207.467 188.963 207.508 187.818 C207.545 186.82 207.583 185.822 207.621 184.793 C207.196 182.127 207.196 182.127 205.788 179.991 C201.81 177.131 198.073 177.582 193.288 177.635 C192.271 177.63 191.254 177.626 190.205 177.621 C186.786 177.61 183.367 177.627 179.947 177.645 C177.5 177.642 175.053 177.638 172.606 177.633 C167.331 177.624 162.056 177.627 156.781 177.641 C149.15 177.66 141.519 177.654 133.888 177.641 C121.502 177.619 109.116 177.612 96.729 177.618 C96.359 177.618 96.359 177.618 94.483 177.619 C89.22 177.621 83.958 177.624 78.696 177.627 C72.684 177.63 66.673 177.634 60.662 177.636 C59.921 177.637 59.181 177.637 58.418 177.637 C46.078 177.642 33.738 177.632 21.398 177.61 C13.785 177.597 6.172 177.598 -1.441 177.618 C-7.271 177.632 -13.101 177.626 -18.931 177.613 C-21.326 177.611 -23.72 177.615 -26.115 177.627 C-29.376 177.643 -32.636 177.634 -35.897 177.619 C-36.375 177.624 -36.375 177.624 -38.79 177.651 C-45.154 177.585 -45.154 177.585 -48.389 175.307 C-50.458 172.121 -50.371 169.538 -50.449 165.764 C-50.468 165.053 -50.487 164.343 -50.506 163.612 C-50.543 162.111 -50.57 160.611 -50.588 159.111 C-50.617 156.832 -50.672 154.555 -50.732 152.277 C-50.764 150.815 -50.795 149.352 -50.824 147.889 C-50.831 147.552 -50.831 147.552 -50.868 145.849 C-50.916 141.509 -50.418 137.415 -49.804 133.127 C-49.99 131.931 -50.176 130.734 -50.367 129.502 C-50.834 125.902 -50.479 124.289 -48.804 121.127 C-47.122 119.445 -45.044 120 -42.736 119.998 C-41.631 119.995 -40.526 119.992 -39.388 119.989 C-38.159 119.99 -36.93 119.992 -35.663 119.993 C-34.369 119.991 -33.075 119.989 -31.742 119.986 C-28.134 119.98 -24.526 119.98 -20.918 119.982 C-17.033 119.982 -13.148 119.976 -9.263 119.972 C-1.646 119.963 5.972 119.96 13.589 119.96 C19.777 119.959 25.966 119.957 32.154 119.954 C49.68 119.945 67.206 119.941 84.732 119.942 C85.678 119.942 86.624 119.942 87.598 119.942 C88.545 119.942 89.492 119.942 90.468 119.942 C105.821 119.942 121.174 119.933 136.528 119.919 C152.273 119.904 168.019 119.897 183.765 119.898 C192.612 119.898 201.46 119.896 210.308 119.885 C217.84 119.876 225.372 119.874 232.904 119.88 C236.75 119.884 240.596 119.884 244.443 119.875 C248.604 119.866 252.766 119.872 256.927 119.88 C258.154 119.875 259.381 119.869 260.645 119.864 C261.753 119.869 262.86 119.873 264.002 119.878 C264.963 119.878 265.925 119.878 266.916 119.877 C269.196 120.127 269.196 120.127 271.196 122.127 C272.211 133.35 271.661 145.986 268.012 156.686 C267.108 159.388 266.439 162.11 265.758 164.877 C264.574 169.283 262.939 172.44 260.196 176.127 C259.788 177.028 259.381 177.929 258.961 178.857 C256.79 182.877 254.082 185.839 250.946 189.127 C250.672 189.422 250.672 189.422 249.285 190.916 C245.943 194.47 242.461 197.714 238.691 200.81 C236.566 202.681 234.954 204.915 233.196 207.127 C231.723 208.343 230.249 209.559 228.758 210.752 C227.088 212.222 225.732 213.784 224.321 215.502 C221.532 218.876 218.407 221.607 215.078 224.436 C212.461 226.787 210.4 229.386 208.196 232.127 C206.54 233.805 204.872 235.47 203.196 237.127 C202.177 238.155 201.161 239.183 200.145 240.213 C194.849 245.56 189.568 250.837 183.828 255.713 C182.35 256.994 180.954 258.369 179.571 259.752 C177.196 262.127 177.196 262.127 174.196 264.564 C171.196 267.127 171.196 267.127 169.008 269.877 C156.509 285.245 138.344 292.834 119.196 295.127 C110.214 295.81 101.206 295.757 92.203 295.772 C89.639 295.789 87.075 295.808 84.51 295.829 C79.167 295.868 73.824 295.895 68.48 295.911 C61.694 295.931 54.908 295.974 48.122 296.025 C41.566 296.074 35.01 296.11 28.453 296.147 C27.236 296.154 26.018 296.162 24.763 296.17 C12.868 296.238 0.992 296.223 -10.895 295.704 C-11.757 295.667 -12.62 295.63 -13.508 295.592 C-25.695 294.981 -37.41 293.943 -47.804 287.127 C-48.918 286.694 -50.032 286.261 -51.179 285.814 C-58.756 282.287 -64.953 277.014 -70.804 271.127 C-72.935 269.25 -75.118 267.438 -77.304 265.627 C-81.337 262.287 -85.116 258.853 -88.804 255.127 C-89.733 254.405 -90.661 253.683 -91.617 252.939 C-92.339 252.341 -93.061 251.743 -93.804 251.127 C-93.804 250.467 -93.804 249.807 -93.804 249.127 C-94.341 248.879 -94.877 248.632 -95.429 248.377 C-101.125 245.379 -104.703 242.048 -108.804 237.127 C-110.785 235.765 -112.785 234.431 -114.804 233.127 C-116.473 231.462 -118.139 229.795 -119.804 228.127 C-121.64 226.583 -123.494 225.062 -125.367 223.564 C-128.706 220.892 -131.81 218.177 -134.804 215.127 C-135.981 214.073 -137.169 213.032 -138.367 212.002 C-142.7 208.252 -146.899 204.364 -151.094 200.459 C-153.804 198.127 -153.804 198.127 -156.879 196.143 C-159.922 194.046 -161.774 192 -163.992 189.064 C-167.647 184.271 -167.647 184.271 -169.347 182.721 C-171.528 180.336 -172.604 177.623 -173.929 174.689 C-174.448 173.556 -174.966 172.423 -175.5 171.256 C-180.686 158.819 -180.097 141.028 -176.804 128.127 C-175.537 126.085 -174.206 124.08 -172.804 122.127 C-172.116 120.625 -171.465 119.105 -170.867 117.564 C-169.124 113.517 -167.142 111.076 -163.804 108.127 C-162.695 107.007 -161.592 105.882 -160.492 104.752 C-157.538 101.798 -154.458 99.057 -151.293 96.334 C-147.959 93.377 -144.733 90.31 -141.492 87.252 C-137.229 83.239 -132.951 79.338 -128.367 75.689 C-122.812 71.264 -117.727 66.399 -112.584 61.51 C-108.476 57.627 -104.299 54.034 -99.75 50.67 C-96.822 48.348 -94.311 45.654 -91.715 42.975 C-89.488 40.821 -87.144 39.099 -84.543 37.428 C-82.057 35.568 -79.997 33.323 -77.804 31.127 C-75.991 29.582 -74.158 28.061 -72.304 26.564 C-71.387 25.821 -70.469 25.077 -69.523 24.311 C-68.626 23.59 -67.729 22.869 -66.804 22.127 C-65.924 21.415 -65.044 20.704 -64.137 19.971 C-61.453 17.849 -58.677 15.986 -55.804 14.127 C-55.219 13.735 -54.634 13.343 -54.031 12.939 C-37.544 2.172 -19.35 -0.045 0 0 Z " fill="currentColor" transform="translate(1365.8044891357422,240.87301635742188)"/>
<path d="M0 0 C1.159 -0.004 2.318 -0.008 3.512 -0.012 C7.363 -0.022 11.213 -0.01 15.064 0.002 C17.837 0.001 20.611 -0.004 23.384 -0.009 C30.114 -0.019 36.843 -0.012 43.573 0 C51.413 0.014 59.253 0.012 67.093 0.01 C81.078 0.007 95.062 0.018 109.047 0.038 C122.615 0.057 136.184 0.064 149.752 0.059 C164.542 0.052 179.332 0.053 194.122 0.064 C195.698 0.065 197.274 0.066 198.85 0.068 C199.238 0.068 199.238 0.068 201.2 0.069 C206.666 0.073 212.131 0.073 217.597 0.071 C224.25 0.069 230.904 0.074 237.558 0.089 C240.953 0.096 244.348 0.1 247.743 0.095 C251.419 0.092 255.096 0.101 258.772 0.114 C259.311 0.112 259.311 0.112 262.037 0.102 C263.02 0.108 264.003 0.114 265.015 0.12 C265.44 0.12 265.44 0.12 267.587 0.122 C270.142 0.403 271.745 0.942 273.878 2.374 C277.011 16.539 275.947 37.806 268.609 50.585 C267.396 52.205 266.138 53.791 264.878 55.374 C264.398 56.651 263.962 57.944 263.566 59.249 C261.711 64.678 257.762 68.289 253.878 72.374 C252.704 73.701 251.537 75.034 250.378 76.374 C249.81 77.023 249.241 77.671 248.655 78.339 C247.412 79.763 246.175 81.193 244.944 82.628 C241.179 86.967 237.321 90.865 232.933 94.57 C230.697 96.533 228.64 98.616 226.566 100.749 C222.435 104.952 218.004 108.614 213.359 112.234 C210.824 114.42 208.934 116.743 206.878 119.374 C205.805 120.347 204.702 121.289 203.566 122.187 C200.958 124.352 198.747 126.594 196.566 129.187 C193.914 132.318 191.105 135.002 188.003 137.687 C184.331 140.897 181.306 144.21 178.316 148.062 C174.929 152.348 171.711 155.189 167.046 157.984 C164.799 159.425 163.047 161.024 161.128 162.874 C146.673 175.688 123.831 177.536 105.319 177.512 C104.412 177.515 103.504 177.518 102.569 177.521 C99.558 177.529 96.546 177.53 93.535 177.532 C91.364 177.537 89.194 177.542 87.023 177.547 C82.364 177.559 77.705 177.567 73.045 177.573 C65.679 177.584 58.314 177.604 50.948 177.627 C30.008 177.688 9.067 177.743 -11.873 177.776 C-23.449 177.794 -35.026 177.823 -46.602 177.864 C-52.725 177.885 -58.848 177.9 -64.971 177.902 C-70.722 177.905 -76.473 177.92 -82.225 177.947 C-84.337 177.954 -86.449 177.956 -88.561 177.953 C-91.44 177.949 -94.319 177.963 -97.198 177.982 C-97.617 177.979 -97.617 177.979 -99.739 177.965 C-104.333 178.018 -107.406 178.362 -111.122 181.374 C-111.785 183.496 -111.785 183.496 -111.821 185.952 C-111.837 186.859 -111.852 187.765 -111.868 188.699 C-111.849 189.665 -111.829 190.63 -111.809 191.624 C-111.797 192.613 -111.784 193.601 -111.77 194.619 C-111.303 207.942 -106.581 218.78 -97.122 228.374 C-87.981 236.269 -75.944 236.96 -64.418 236.86 C-62.967 236.862 -61.516 236.866 -60.065 236.872 C-56.109 236.882 -52.154 236.868 -48.198 236.85 C-43.92 236.834 -39.642 236.842 -35.364 236.848 C-27.961 236.854 -20.559 236.846 -13.157 236.83 C-2.45 236.806 8.256 236.809 18.963 236.819 C36.342 236.836 53.721 236.838 71.1 236.829 C72.139 236.828 73.177 236.827 74.248 236.827 C85.851 236.82 97.453 236.811 109.056 236.8 C113.271 236.797 117.485 236.793 121.699 236.79 C122.739 236.789 123.779 236.788 124.851 236.787 C142.177 236.773 159.502 236.778 176.828 236.797 C187.513 236.809 198.197 236.803 208.882 236.775 C216.194 236.757 223.506 236.757 230.818 236.771 C235.039 236.778 239.26 236.777 243.481 236.755 C247.343 236.734 251.203 236.736 255.064 236.757 C256.464 236.76 257.863 236.755 259.262 236.741 C261.159 236.722 263.056 236.737 264.953 236.755 C266.008 236.754 267.064 236.752 268.151 236.751 C271.846 237.595 272.88 239.241 274.878 242.374 C275.379 244.675 275.379 244.675 275.38 247.053 C275.389 247.951 275.399 248.849 275.408 249.775 C275.397 250.733 275.386 251.691 275.374 252.679 C275.376 253.676 275.377 254.674 275.379 255.701 C275.377 257.808 275.365 259.914 275.345 262.02 C275.316 265.231 275.324 268.441 275.337 271.652 C275.331 273.702 275.322 275.753 275.312 277.804 C275.315 278.758 275.318 279.713 275.321 280.696 C275.242 286.329 274.612 290.408 271.878 295.374 C269.445 296.591 267.913 296.495 265.193 296.487 C264.199 296.487 263.205 296.487 262.181 296.486 C261.081 296.481 259.981 296.476 258.847 296.47 C258.266 296.469 258.266 296.469 255.324 296.464 C252.087 296.458 248.85 296.448 245.613 296.435 C242.126 296.423 238.638 296.416 235.15 296.408 C228.312 296.393 221.474 296.371 214.635 296.348 C209.075 296.329 203.514 296.311 197.954 296.295 C182.19 296.248 166.425 296.198 150.661 296.141 C149.811 296.138 148.96 296.135 148.084 296.132 C147.658 296.131 147.658 296.131 145.504 296.123 C131.717 296.074 117.931 296.035 104.145 296.001 C89.99 295.965 75.836 295.923 61.681 295.872 C53.734 295.844 45.787 295.819 37.84 295.801 C31.07 295.787 24.3 295.765 17.529 295.735 C14.077 295.719 10.625 295.707 7.173 295.703 C3.423 295.698 -0.326 295.68 -4.075 295.659 C-4.616 295.66 -4.616 295.66 -7.355 295.663 C-13.118 295.617 -18.441 295.116 -24.062 293.818 C-26.596 293.272 -29.035 293.207 -31.622 293.187 C-38.195 292.668 -42.086 289.352 -47.122 285.374 C-48.611 284.358 -50.111 283.358 -51.622 282.374 C-68.942 270.858 -68.942 270.858 -74.122 265.374 C-74.122 264.714 -74.122 264.054 -74.122 263.374 C-74.493 263.261 -74.493 263.261 -76.372 262.687 C-79.699 261.099 -80.934 259.314 -83.122 256.374 C-86.124 253.019 -89.276 250.548 -92.997 248.062 C-96.356 245.776 -98.997 243.586 -101.559 240.437 C-105.003 236.206 -109.063 233.36 -113.571 230.331 C-116.264 228.265 -118.024 226.024 -120.122 223.374 C-122.087 221.968 -122.087 221.968 -124.059 220.874 C-127.629 218.76 -130.25 216.394 -133.122 213.374 C-134.82 211.889 -136.543 210.44 -138.278 208.999 C-139.715 207.733 -141.094 206.399 -142.446 205.042 C-144.325 203.169 -146.199 201.377 -148.173 199.613 C-163.79 185.636 -174.658 169.978 -175.872 148.312 C-175.151 136.656 -171.132 123.573 -163.77 114.476 C-162.04 112.269 -160.906 110.079 -159.684 107.562 C-157.515 103.507 -155.221 101.849 -151.235 99.687 C-148.003 97.679 -145.615 94.959 -143.001 92.222 C-140.617 89.877 -137.898 88.225 -135.122 86.374 C-134.297 85.384 -133.472 84.394 -132.622 83.374 C-130.023 80.255 -127.511 78.563 -124.122 76.374 C-122.432 74.731 -120.77 73.06 -119.122 71.374 C-109.883 62.71 -109.883 62.71 -105.809 60.124 C-103.122 58.374 -103.122 58.374 -100.809 56.062 C-97.216 52.468 -93.324 49.239 -89.122 46.374 C-88.462 46.374 -87.802 46.374 -87.122 46.374 C-86.895 45.838 -86.668 45.302 -86.434 44.749 C-82.926 38.4 -78.389 35.009 -72.462 31.023 C-70.122 29.374 -70.122 29.374 -67.684 26.937 C-61.501 20.753 -53.927 16.09 -46.376 11.753 C-44.337 10.506 -42.632 9.16 -40.809 7.624 C-36.884 4.73 -32.646 4.429 -27.891 3.929 C-24.659 3.453 -21.779 2.74 -18.644 1.863 C-12.341 0.275 -6.476 -0.045 0 0 Z M-99.122 70.374 C-99.926 70.952 -100.731 71.529 -101.559 72.124 C-104.601 74.795 -105.761 77.179 -107.372 80.874 C-107.872 81.998 -108.372 83.122 -108.888 84.28 C-111.333 90.409 -111.54 96.268 -111.872 102.812 C-111.94 103.849 -112.009 104.886 -112.079 105.954 C-112.458 113.515 -112.458 113.515 -110.888 117.534 C-108.424 120.101 -106.318 120.308 -102.827 120.502 C-101.976 120.503 -101.126 120.504 -100.249 120.506 C-99.264 120.509 -98.279 120.513 -97.264 120.517 C-96.184 120.516 -95.104 120.516 -93.991 120.515 C-93.417 120.516 -93.417 120.516 -90.509 120.524 C-87.318 120.531 -84.128 120.534 -80.937 120.534 C-77.496 120.536 -74.055 120.544 -70.613 120.55 C-63.086 120.564 -55.559 120.57 -48.031 120.574 C-43.328 120.577 -38.624 120.581 -33.92 120.586 C-20.888 120.598 -7.855 120.608 5.177 120.612 C6.011 120.612 6.845 120.612 7.705 120.612 C8.541 120.613 9.377 120.613 10.239 120.613 C11.933 120.614 13.627 120.614 15.321 120.614 C16.162 120.615 17.002 120.615 17.868 120.615 C31.467 120.619 45.066 120.637 58.665 120.66 C72.639 120.684 86.613 120.696 100.587 120.697 C108.428 120.698 116.269 120.704 124.11 120.722 C130.791 120.737 137.472 120.742 144.153 120.734 C147.557 120.73 150.961 120.733 154.366 120.745 C188.821 120.864 188.821 120.864 196.378 113.499 C196.983 112.784 197.587 112.068 198.21 111.331 C199.878 109.374 199.878 109.374 203.066 107.187 C207.483 102.769 208.991 97.241 210.878 91.374 C211.062 90.85 211.062 90.85 211.991 88.195 C213.202 82.979 213.285 77.962 213.316 72.624 C213.348 71.584 213.381 70.544 213.415 69.472 C213.419 68.974 213.419 68.974 213.437 66.452 C213.45 65.549 213.464 64.646 213.477 63.715 C212.878 61.374 212.878 61.374 211.04 59.752 C206.295 57.685 201.812 57.961 196.69 57.993 C195.546 57.989 194.403 57.984 193.225 57.979 C189.385 57.967 185.546 57.977 181.706 57.986 C178.956 57.984 176.207 57.977 173.457 57.97 C166.756 57.957 160.056 57.96 153.356 57.968 C147.906 57.975 142.457 57.976 137.008 57.973 C136.62 57.973 136.62 57.973 134.657 57.971 C133.081 57.97 131.505 57.969 129.929 57.968 C115.145 57.96 100.36 57.97 85.575 57.986 C72.905 57.999 60.235 57.997 47.565 57.983 C32.844 57.967 18.123 57.961 3.402 57.97 C1.83 57.971 0.257 57.972 -1.315 57.973 C-2.089 57.973 -2.862 57.974 -3.659 57.974 C-9.095 57.977 -14.53 57.972 -19.966 57.965 C-26.601 57.957 -33.236 57.959 -39.871 57.975 C-43.253 57.983 -46.634 57.985 -50.016 57.976 C-53.693 57.968 -57.368 57.978 -61.045 57.993 C-61.572 57.99 -61.572 57.99 -64.242 57.973 C-76.806 58.071 -90.435 60.722 -99.122 70.374 Z " fill="currentColor" transform="translate(1833.1219482421875,240.6257781982422)"/>
<path d="M0 0 C5.276 0.767 10.563 0.598 15.883 0.55 C16.468 0.547 16.468 0.547 19.429 0.531 C21.965 0.517 24.501 0.501 27.037 0.483 C31.067 0.456 35.097 0.438 39.127 0.424 C40.513 0.419 41.899 0.413 43.286 0.408 C43.633 0.407 43.633 0.407 45.389 0.4 C54.759 0.365 64.129 0.319 73.499 0.253 C79.834 0.208 86.169 0.178 92.505 0.164 C95.845 0.156 99.185 0.139 102.525 0.107 C116.196 -0.018 129.077 0.174 142.371 3.594 C145.652 4.391 148.612 4.802 151.974 4.937 C155.53 5.189 155.957 5.377 158.849 7.875 C159.22 8.308 159.22 8.308 161.099 10.5 C161.986 10.933 162.873 11.366 163.786 11.812 C168.769 14.35 172.813 17.938 177.099 21.5 C177.801 22.054 178.504 22.608 179.228 23.179 C182.837 26.088 184.499 28.069 186.099 32.5 C186.647 32.763 187.195 33.026 187.759 33.297 C191.08 35.004 193.631 37.483 196.349 40 C196.903 40.499 197.457 40.997 198.029 41.511 C199.427 42.797 200.768 44.144 202.099 45.5 C202.099 46.16 202.099 46.82 202.099 47.5 C202.46 47.623 202.46 47.623 204.286 48.25 C208.255 50.014 211.239 51.984 213.411 55.812 C215.507 59.15 218.114 61.216 221.114 63.734 C222.874 65.3 224.283 66.835 225.724 68.687 C228.262 71.693 230.81 73.376 234.099 75.5 C237.768 78.802 240.631 82.431 243.474 86.437 C247.018 90.936 251.351 94.682 255.599 98.5 C268.065 109.705 278.047 122.005 281.493 138.843 C282.099 141.5 282.099 141.5 283.12 143.786 C284.237 146.883 284.353 149.283 284.36 152.572 C284.367 153.792 284.374 155.011 284.381 156.268 C284.379 157.612 284.376 158.955 284.373 160.299 C284.378 161.72 284.383 163.141 284.389 164.562 C284.402 168.415 284.403 172.268 284.4 176.122 C284.399 179.34 284.404 182.558 284.409 185.777 C284.42 193.369 284.421 200.961 284.414 208.553 C284.408 216.383 284.421 224.214 284.442 232.044 C284.46 238.77 284.466 245.497 284.462 252.223 C284.461 256.239 284.463 260.255 284.477 264.27 C284.49 268.046 284.488 271.822 284.475 275.597 C284.472 276.982 284.475 278.367 284.483 279.752 C284.494 281.643 284.484 283.535 284.473 285.427 C284.473 285.956 284.473 285.956 284.474 288.634 C284.042 291.937 283.072 293.837 281.099 296.5 C279.139 297.108 279.139 297.108 276.89 297.083 C276.046 297.086 275.201 297.089 274.331 297.092 C273.876 297.081 273.876 297.081 271.575 297.023 C270.637 297.018 269.699 297.014 268.732 297.009 C265.729 296.988 262.727 296.931 259.724 296.875 C257.708 296.858 255.693 296.844 253.677 296.832 C238.233 296.69 238.233 296.69 233.099 295.5 C230.966 295.726 230.966 295.726 228.974 296.125 C225.099 296.5 225.099 296.5 223.161 295.312 C220.639 291.009 220.956 286.407 220.968 281.551 C220.966 281.148 220.966 281.148 220.961 279.106 C220.955 276.399 220.956 273.692 220.957 270.984 C220.954 269.044 220.95 267.104 220.946 265.164 C220.939 260.983 220.933 256.801 220.93 252.62 C220.924 246 220.908 239.38 220.889 232.761 C220.882 230.493 220.876 228.225 220.87 225.958 C220.867 224.822 220.864 223.686 220.86 222.516 C220.818 207.105 220.785 191.694 220.773 176.283 C220.764 165.888 220.742 155.493 220.704 145.098 C220.684 139.6 220.671 134.103 220.676 128.606 C220.681 123.427 220.667 118.249 220.639 113.071 C220.632 111.178 220.632 109.286 220.64 107.393 C220.712 86.425 220.712 86.425 216.099 77.5 C213.843 75.322 211.706 73.677 209.025 72.062 C207.099 70.5 207.099 70.5 206.329 67.812 C206.253 67.049 206.177 66.286 206.099 65.5 C205.507 65.474 204.915 65.448 204.306 65.422 C203.516 65.365 202.725 65.308 201.911 65.25 C201.134 65.203 200.357 65.157 199.556 65.109 C197.099 64.5 197.099 64.5 194.842 62.508 C191.554 60.101 189.797 59.921 185.757 59.759 C185.114 59.73 184.471 59.702 183.808 59.672 C181.572 59.586 179.337 59.538 177.099 59.5 C176.684 59.493 176.684 59.493 174.584 59.456 C167.58 59.354 160.576 59.353 153.571 59.354 C151.225 59.351 148.88 59.348 146.534 59.344 C140.204 59.335 133.873 59.333 127.543 59.332 C122.914 59.332 118.286 59.329 113.657 59.326 C101.198 59.317 88.738 59.314 76.279 59.314 C75.926 59.314 75.926 59.314 74.142 59.314 C73.789 59.314 73.789 59.314 72.003 59.315 C60.554 59.315 49.105 59.305 37.656 59.291 C25.864 59.277 14.072 59.27 2.28 59.271 C-4.326 59.271 -10.932 59.268 -17.538 59.258 C-23.748 59.248 -29.959 59.248 -36.169 59.255 C-38.44 59.256 -40.712 59.254 -42.983 59.248 C-65.007 59.193 -65.007 59.193 -75.901 61.5 C-76.231 62.49 -76.561 63.48 -76.901 64.5 C-78.792 65.273 -78.792 65.273 -81.151 65.875 C-85.61 67.248 -87.884 68.83 -90.901 72.5 C-91.405 73.112 -91.909 73.724 -92.429 74.355 C-99.209 82.926 -101.073 90.813 -101.001 101.711 C-101 102.522 -100.999 103.333 -100.997 104.168 C-100.992 106.877 -100.98 109.585 -100.967 112.293 C-100.962 114.238 -100.957 116.183 -100.953 118.128 C-100.943 122.313 -100.93 126.497 -100.915 130.681 C-100.892 137.294 -100.879 143.907 -100.868 150.521 C-100.834 169.325 -100.792 188.129 -100.73 206.933 C-100.695 217.321 -100.671 227.71 -100.66 238.099 C-100.651 244.676 -100.63 251.253 -100.599 257.83 C-100.583 261.917 -100.58 266.003 -100.58 270.09 C-100.578 271.987 -100.57 273.885 -100.557 275.783 C-100.54 278.37 -100.541 280.956 -100.547 283.542 C-100.538 284.297 -100.528 285.052 -100.519 285.829 C-100.543 288.961 -100.728 291.178 -102.225 293.959 C-104.901 296.419 -107.427 296.117 -110.991 296.242 C-111.696 296.27 -112.4 296.299 -113.126 296.328 C-115.385 296.41 -117.642 296.46 -119.901 296.5 C-120.265 296.507 -120.265 296.507 -122.105 296.544 C-126.487 296.622 -130.867 296.643 -135.25 296.63 C-137.494 296.625 -139.737 296.63 -141.981 296.636 C-143.435 296.636 -144.889 296.634 -146.343 296.633 C-146.986 296.632 -146.986 296.632 -150.239 296.629 C-159.866 296.289 -159.866 296.289 -162.57 294.227 C-164.233 292.069 -164.32 290.886 -164.408 288.176 C-164.443 287.246 -164.478 286.315 -164.514 285.357 C-164.536 284.297 -164.558 283.238 -164.58 282.146 C-164.613 280.982 -164.647 279.818 -164.681 278.619 C-165.184 257.741 -165.046 236.845 -165.036 215.963 C-165.033 209.502 -165.035 203.042 -165.037 196.581 C-165.039 185.05 -165.036 173.52 -165.031 161.989 C-165.026 151.595 -165.027 141.202 -165.032 130.808 C-165.037 118.652 -165.039 106.496 -165.036 94.34 C-165.034 87.936 -165.034 81.533 -165.037 75.13 C-165.04 69.106 -165.038 63.081 -165.033 57.057 C-165.031 54.87 -165.032 52.683 -165.034 50.496 C-165.045 38.696 -164.897 26.908 -164.518 15.113 C-164.488 13.983 -164.457 12.853 -164.426 11.689 C-164.388 10.647 -164.35 9.605 -164.311 8.532 C-164.295 8.07 -164.295 8.07 -164.218 5.73 C-163.901 3.5 -163.901 3.5 -161.901 1.5 C-158.958 1.179 -156.104 0.981 -153.151 0.875 C-152.71 0.856 -152.71 0.856 -150.477 0.762 C-110.403 -0.766 -110.403 -0.766 -102.901 4.5 C-101.777 6.747 -101.706 8.157 -101.585 10.656 C-101.543 11.505 -101.501 12.355 -101.457 13.23 C-101.418 14.144 -101.379 15.058 -101.339 16 C-101.297 16.936 -101.255 17.872 -101.212 18.836 C-100.956 25.015 -100.798 31.19 -100.776 37.375 C-100.774 37.733 -100.774 37.733 -100.762 39.549 C-100.772 42.868 -100.975 46.008 -101.456 49.297 C-101.972 53.012 -101.506 55.129 -99.901 58.5 C-99.406 58.665 -99.406 58.665 -96.901 59.5 C-92.745 56.844 -89.762 53.155 -86.589 49.441 C-84.474 47.008 -82.18 44.779 -79.901 42.5 C-78.134 40.436 -76.38 38.362 -74.647 36.269 C-72.901 34.5 -72.901 34.5 -70.839 33.476 C-68.545 32.32 -67.807 31.223 -66.464 29.062 C-64.34 25.916 -62.417 24.115 -58.901 22.5 C-58.241 22.5 -57.581 22.5 -56.901 22.5 C-56.66 21.909 -56.419 21.319 -56.171 20.711 C-50.55 10.921 -35.041 6.253 -24.718 3.354 C-7.358 -1.269 -7.358 -1.269 0 0 Z " fill="currentColor" transform="translate(2295.9011840820313,240.5002899169922)"/>
<path d="M0 0 C6.103 -0.012 12.206 -0.022 18.309 -0.027 C20.159 -0.029 22.009 -0.032 23.859 -0.035 C57.709 -0.093 57.709 -0.093 67.852 1.007 C71.533 4.688 70.014 16.633 70.02 21.659 C70.023 22.64 70.026 23.622 70.03 24.633 C70.035 26.689 70.037 28.745 70.037 30.802 C70.039 33.959 70.057 37.117 70.076 40.274 C70.079 42.277 70.081 44.281 70.082 46.284 C70.089 47.23 70.097 48.176 70.104 49.15 C70.101 50.022 70.098 50.893 70.095 51.792 C70.096 52.559 70.097 53.327 70.099 54.118 C69.852 56.007 69.852 56.007 67.852 58.007 C64.949 58.332 62.143 58.523 59.229 58.627 C58.305 58.664 57.381 58.702 56.429 58.741 C43.325 59.212 30.209 59.126 17.099 59.093 C13.148 59.085 9.197 59.082 5.247 59.079 C-1.576 59.073 -8.399 59.063 -15.221 59.051 C-25.097 59.034 -34.973 59.025 -44.849 59.017 C-60.894 59.005 -76.938 58.991 -92.983 58.972 C-93.462 58.972 -93.462 58.972 -95.884 58.969 C-109.492 58.953 -123.1 58.935 -136.707 58.915 C-137.668 58.914 -138.628 58.912 -139.617 58.911 C-140.576 58.909 -141.535 58.908 -142.523 58.906 C-158.526 58.883 -174.529 58.868 -190.532 58.859 C-200.382 58.853 -210.233 58.841 -220.084 58.82 C-226.827 58.806 -233.571 58.8 -240.315 58.799 C-244.201 58.798 -248.087 58.794 -251.973 58.782 C-255.535 58.77 -259.097 58.768 -262.66 58.773 C-264.547 58.773 -266.433 58.763 -268.32 58.753 C-278.128 58.782 -287.14 58.952 -295.148 65.007 C-295.829 65.151 -296.51 65.295 -297.211 65.444 C-300.342 66.353 -301.961 68.659 -304.148 71.007 C-305.015 71.832 -305.881 72.657 -306.773 73.507 C-312.851 79.904 -315.546 86.963 -315.441 95.69 C-315.439 96.04 -315.439 96.04 -315.428 97.813 C-315.412 100.024 -315.374 102.233 -315.336 104.444 C-315.321 105.954 -315.307 107.464 -315.295 108.973 C-315.262 112.651 -315.21 116.329 -315.148 120.007 C-314.461 119.936 -313.773 119.866 -313.064 119.793 C-304.623 119.002 -296.241 118.855 -287.768 118.853 C-286.244 118.849 -284.719 118.844 -283.194 118.839 C-279.035 118.828 -274.876 118.822 -270.717 118.817 C-266.22 118.811 -261.723 118.8 -257.226 118.789 C-246.391 118.765 -235.556 118.75 -224.721 118.737 C-221.66 118.733 -218.599 118.729 -215.538 118.725 C-196.518 118.7 -177.498 118.678 -158.478 118.665 C-154.082 118.663 -149.687 118.66 -145.291 118.657 C-144.199 118.656 -143.106 118.655 -141.981 118.654 C-124.247 118.642 -106.514 118.608 -88.78 118.567 C-70.565 118.524 -52.35 118.501 -34.135 118.496 C-23.911 118.492 -13.687 118.48 -3.462 118.447 C5.235 118.419 13.932 118.408 22.629 118.42 C27.067 118.425 31.505 118.422 35.943 118.397 C40.003 118.375 44.063 118.375 48.124 118.394 C49.594 118.397 51.065 118.391 52.536 118.377 C54.532 118.358 56.527 118.372 58.523 118.389 C59.632 118.387 60.742 118.386 61.885 118.384 C65.822 119.21 67.337 120.942 69.852 124.007 C70.466 126.403 70.466 126.403 70.451 128.917 C70.457 129.865 70.463 130.812 70.469 131.789 C70.46 132.295 70.46 132.295 70.41 134.854 C70.408 135.903 70.406 136.952 70.403 138.033 C70.393 140.246 70.372 142.459 70.339 144.672 C70.289 148.061 70.277 151.448 70.272 154.837 C70.257 156.988 70.241 159.14 70.223 161.292 C70.217 162.305 70.212 163.319 70.207 164.363 C70.191 165.308 70.175 166.252 70.158 167.226 C70.147 168.054 70.137 168.883 70.126 169.737 C69.823 172.247 69.191 173.87 67.852 176.007 C65.075 177.395 62.82 177.137 59.711 177.143 C58.392 177.147 57.073 177.152 55.714 177.157 C54.236 177.158 52.759 177.158 51.281 177.158 C49.722 177.162 48.163 177.166 46.605 177.171 C42.305 177.183 38.006 177.188 33.706 177.193 C29.076 177.199 24.445 177.21 19.814 177.221 C11.786 177.24 3.757 177.254 -4.272 177.267 C-15.884 177.285 -27.496 177.31 -39.107 177.336 C-57.949 177.379 -76.791 177.418 -95.633 177.454 C-96.762 177.457 -97.891 177.459 -99.053 177.461 C-107.064 177.476 -115.075 177.491 -123.086 177.507 C-132.235 177.524 -141.384 177.541 -150.533 177.559 C-151.096 177.56 -151.096 177.56 -153.948 177.565 C-172.716 177.602 -191.485 177.641 -210.253 177.684 C-221.84 177.71 -233.427 177.733 -245.013 177.751 C-252.949 177.764 -260.884 177.78 -268.819 177.799 C-273.403 177.81 -277.986 177.819 -282.57 177.824 C-286.761 177.828 -290.952 177.837 -295.144 177.849 C-296.664 177.853 -298.185 177.855 -299.706 177.855 C-301.765 177.856 -303.823 177.863 -305.881 177.871 C-306.454 177.872 -306.454 177.872 -309.354 177.877 C-312.148 178.007 -312.148 178.007 -315.148 179.007 C-315.248 183.008 -315.32 187.01 -315.368 191.012 C-315.388 192.371 -315.415 193.73 -315.45 195.088 C-315.791 208.74 -315.791 208.74 -311.148 215.007 C-310.715 216.182 -310.282 217.358 -309.836 218.569 C-308.001 222.306 -306.191 224.045 -302.965 226.55 C-301.148 228.007 -301.148 228.007 -299.43 229.928 C-291.17 237.453 -278.845 237.722 -268.325 237.588 C-266.885 237.588 -265.445 237.59 -264.005 237.594 C-260.09 237.6 -256.176 237.574 -252.26 237.543 C-248.023 237.515 -243.785 237.516 -239.547 237.514 C-232.217 237.507 -224.888 237.481 -217.558 237.444 C-206.955 237.39 -196.353 237.366 -185.75 237.351 C-168.537 237.325 -151.325 237.28 -134.112 237.219 C-133.084 237.215 -132.055 237.212 -130.996 237.208 C-128.914 237.201 -126.832 237.193 -124.75 237.186 C-123.718 237.182 -122.686 237.179 -121.622 237.175 C-121.106 237.173 -121.106 237.173 -118.492 237.164 C-106.998 237.124 -95.504 237.089 -84.011 237.055 C-83.496 237.053 -83.496 237.053 -80.89 237.046 C-63.728 236.996 -46.566 236.958 -29.404 236.928 C-18.823 236.908 -8.243 236.877 2.337 236.83 C9.578 236.798 16.818 236.777 24.058 236.764 C28.237 236.756 32.416 236.743 36.595 236.716 C40.418 236.692 44.241 236.682 48.065 236.683 C49.449 236.681 50.834 236.673 52.218 236.66 C54.098 236.644 55.977 236.647 57.856 236.651 C58.901 236.648 59.946 236.644 61.022 236.64 C64.323 237.068 66.189 238.035 68.852 240.007 C70.771 243.584 70.92 246.265 70.387 250.171 C69.877 254.799 69.784 259.375 69.824 264.026 C69.83 264.738 69.835 265.45 69.841 266.183 C69.869 269.149 69.904 272.114 69.948 275.08 C69.978 277.27 69.996 279.461 70.012 281.651 C70.02 282.298 70.02 282.298 70.063 285.568 C69.856 288.933 69.522 291.091 67.852 294.007 C64.88 295.874 62.595 296.257 59.118 296.261 C58.164 296.267 57.209 296.273 56.226 296.279 C55.181 296.275 54.136 296.271 53.058 296.267 C52.502 296.269 52.502 296.269 49.686 296.279 C45.942 296.289 42.199 296.285 38.455 296.281 C35.776 296.286 33.097 296.291 30.418 296.297 C23.884 296.31 17.35 296.311 10.817 296.309 C5.498 296.307 0.18 296.309 -5.138 296.313 C-5.895 296.314 -6.652 296.314 -7.433 296.315 C-8.971 296.316 -10.51 296.317 -12.048 296.319 C-26.488 296.33 -40.929 296.327 -55.369 296.321 C-68.545 296.316 -81.72 296.327 -94.895 296.346 C-108.443 296.366 -121.991 296.374 -135.539 296.37 C-143.137 296.368 -150.735 296.371 -158.333 296.385 C-164.811 296.397 -171.289 296.398 -177.767 296.386 C-181.064 296.38 -184.361 296.381 -187.659 296.391 C-200.785 296.43 -213.431 296.146 -226.349 293.68 C-229.726 293.081 -232.914 292.787 -236.336 292.694 C-241.126 292.339 -243.664 290.622 -247.266 287.546 C-249.114 286.035 -250.804 285.073 -252.961 284.069 C-262.852 279.286 -270.582 273.06 -278.402 265.425 C-281.946 261.98 -285.479 258.964 -289.553 256.169 C-292.024 254.369 -294.049 252.22 -296.148 250.007 C-298.12 247.979 -300.104 245.962 -302.086 243.944 C-302.336 243.686 -302.336 243.686 -303.6 242.38 C-306.864 239.073 -310.214 236.522 -314.148 234.007 C-315.838 232.364 -317.501 230.692 -319.148 229.007 C-326.707 221.957 -334.595 215.308 -342.766 208.979 C-344.933 207.185 -346.666 205.412 -348.461 203.257 C-353.916 196.892 -359.788 191.135 -366.289 185.843 C-370.639 181.547 -372.866 176.655 -374.836 170.944 C-375.044 170.351 -375.044 170.351 -376.098 167.346 C-380.86 152.209 -379.636 133.551 -372.523 119.444 C-364.475 105.737 -352.393 93.721 -339.148 85.007 C-338.746 84.522 -338.746 84.522 -336.711 82.069 C-334.224 79.097 -331.939 77.294 -328.773 75.159 C-327.148 74.007 -327.148 74.007 -325.086 71.944 C-322.678 69.536 -319.997 67.867 -317.148 66.007 C-313.949 63.709 -311.472 61.261 -308.961 58.257 C-305.613 54.337 -301.906 51.299 -297.84 48.151 C-292.185 43.646 -286.833 38.721 -281.75 33.581 C-274.361 26.27 -266.334 18.957 -257.148 14.007 C-256.218 13.495 -255.287 12.983 -254.328 12.456 C-252.412 11.408 -250.492 10.368 -248.566 9.339 C-246.148 8.007 -246.148 8.007 -243.148 6.007 C-241.205 5.453 -239.243 4.959 -237.273 4.507 C-231.497 3.175 -231.497 3.175 -229.009 1.975 C-225.135 0.664 -221.419 0.719 -217.377 0.728 C-216.935 0.725 -216.935 0.725 -214.699 0.711 C-211.735 0.694 -208.772 0.691 -205.808 0.688 C-203.682 0.678 -201.556 0.668 -199.429 0.657 C-193.64 0.63 -187.85 0.615 -182.06 0.602 C-175.961 0.586 -169.863 0.559 -163.764 0.534 C-152.161 0.487 -140.559 0.45 -128.956 0.417 C-115.93 0.379 -102.905 0.33 -89.88 0.279 C-59.92 0.164 -29.96 0.063 0 0 Z " fill="currentColor" transform="translate(622.1483397483826,240.99335956573486)"/>
<path d="M0 0 C0.164 2.814 0.207 5.528 0.16 8.34 C0.158 8.758 0.158 8.758 0.144 10.875 C0.127 13.563 0.095 16.25 0.062 18.938 C0.026 22.447 -0.004 25.956 -0.027 29.465 C-0.034 30.307 -0.041 31.149 -0.049 32.017 C-0.069 37.375 0.194 42.597 0.974 47.908 C1.006 50.477 0.383 51.856 -1 54 C-4.428 55.714 -8.351 55.396 -12.129 55.557 C-13.101 55.6 -14.072 55.642 -15.073 55.685 C-28.263 56.197 -41.461 56.12 -54.659 56.087 C-58.578 56.078 -62.498 56.076 -66.417 56.072 C-73.183 56.066 -79.949 56.057 -86.715 56.045 C-96.505 56.028 -106.296 56.018 -116.086 56.011 C-131.989 55.999 -147.891 55.984 -163.793 55.966 C-164.268 55.965 -164.268 55.965 -166.668 55.962 C-180.16 55.947 -193.652 55.928 -207.145 55.908 C-207.621 55.908 -207.621 55.908 -210.032 55.904 C-210.983 55.903 -211.935 55.901 -212.915 55.9 C-228.781 55.877 -244.647 55.861 -260.513 55.852 C-270.282 55.847 -280.051 55.834 -289.819 55.814 C-296.502 55.8 -303.185 55.793 -309.868 55.793 C-313.721 55.792 -317.574 55.788 -321.428 55.775 C-325.606 55.761 -329.784 55.763 -333.962 55.766 C-335.176 55.76 -336.391 55.753 -337.642 55.746 C-346.158 55.772 -352.636 56.469 -360 61 C-361.052 61.227 -362.104 61.454 -363.188 61.688 C-369.785 63.488 -375.131 68.241 -378.902 73.809 C-383.944 83.287 -385.135 92.31 -385.312 102.875 C-385.33 103.601 -385.348 104.327 -385.367 105.075 C-385.359 109.527 -384.971 112.596 -382 116 C-378.181 117.075 -374.521 117.117 -370.571 117.099 C-369.264 117.096 -367.957 117.092 -366.611 117.089 C-365.162 117.08 -363.714 117.071 -362.265 117.062 C-360.725 117.056 -359.185 117.051 -357.645 117.046 C-353.411 117.031 -349.178 117.01 -344.944 116.988 C-340.379 116.965 -335.814 116.948 -331.248 116.93 C-323.337 116.899 -315.426 116.865 -307.516 116.829 C-295.017 116.772 -282.519 116.725 -270.021 116.68 C-265.746 116.665 -261.471 116.649 -257.196 116.634 C-256.128 116.63 -255.06 116.626 -253.959 116.622 C-241.799 116.578 -229.64 116.531 -217.48 116.483 C-216.924 116.481 -216.924 116.481 -214.111 116.47 C-196.082 116.4 -178.053 116.321 -160.025 116.241 C-141.524 116.159 -123.023 116.088 -104.522 116.027 C-93.105 115.99 -81.688 115.942 -70.27 115.883 C-62.452 115.842 -54.634 115.813 -46.815 115.793 C-42.3 115.781 -37.785 115.763 -33.271 115.733 C-29.141 115.706 -25.012 115.692 -20.882 115.689 C-19.385 115.686 -17.887 115.677 -16.39 115.663 C-14.361 115.645 -12.332 115.646 -10.304 115.649 C-9.175 115.645 -8.046 115.64 -6.883 115.635 C-3.659 116.043 -2.28 116.715 0 119 C0.533 121.641 0.533 121.641 0.566 124.82 C0.573 125.404 0.573 125.404 0.607 128.357 C0.593 129.6 0.578 130.844 0.562 132.125 C0.552 133.394 0.541 134.662 0.529 135.969 C0.069 156.056 -6.902 173.507 -21 188 C-21.907 189.116 -22.804 190.24 -23.688 191.375 C-26 194 -26 194 -28.375 195.312 C-31.152 197.098 -32.373 198.674 -34.312 201.312 C-36.611 204.401 -38.715 206.739 -41.875 208.938 C-46.051 211.858 -49.147 215.362 -52.488 219.188 C-55.382 222.428 -58.38 225.539 -61.438 228.625 C-61.958 229.158 -62.478 229.691 -63.015 230.241 C-64.304 231.534 -65.648 232.772 -67 234 C-67.66 234 -68.32 234 -69 234 C-69.113 234.371 -69.113 234.371 -69.688 236.25 C-71.259 239.543 -73 240.975 -76 243 C-76.66 243 -77.32 243 -78 243 C-78.22 243.548 -78.441 244.096 -78.668 244.66 C-80.419 247.735 -82.789 250.002 -85.312 252.438 C-85.786 252.902 -86.26 253.367 -86.748 253.846 C-88.163 255.233 -89.581 256.617 -91 258 C-91.803 258.806 -92.606 259.611 -93.434 260.441 C-109.392 276.351 -109.392 276.351 -116.723 279.887 C-120.612 281.788 -124.231 284.173 -127.91 286.449 C-146.016 295.537 -171.054 293.433 -190.65 293.372 C-193.448 293.373 -196.246 293.378 -199.044 293.383 C-205.791 293.393 -212.537 293.386 -219.284 293.374 C-227.151 293.36 -235.017 293.362 -242.884 293.364 C-256.91 293.367 -270.937 293.356 -284.963 293.336 C-298.567 293.317 -312.171 293.31 -325.775 293.316 C-340.63 293.322 -355.486 293.322 -370.342 293.31 C-371.923 293.309 -373.505 293.308 -375.086 293.307 C-375.475 293.306 -375.475 293.306 -377.444 293.305 C-382.928 293.301 -388.412 293.301 -393.896 293.303 C-400.562 293.305 -407.228 293.3 -413.894 293.286 C-417.295 293.278 -420.696 293.274 -424.097 293.279 C-427.775 293.282 -431.454 293.273 -435.133 293.261 C-435.674 293.263 -435.674 293.263 -438.416 293.272 C-439.395 293.266 -440.374 293.26 -441.383 293.254 C-442.232 293.254 -443.082 293.253 -443.957 293.252 C-446 293 -446 293 -448 291 C-449.374 284.884 -449.16 278.347 -449.168 272.109 C-449.171 271.202 -449.175 270.294 -449.178 269.359 C-449.183 267.456 -449.185 265.554 -449.185 263.651 C-449.188 260.744 -449.206 257.837 -449.225 254.93 C-449.228 253.073 -449.23 251.216 -449.23 249.359 C-449.238 248.495 -449.245 247.63 -449.252 246.739 C-449.22 238.227 -449.22 238.227 -447 235 C-442.949 234.076 -439.062 233.879 -434.918 233.894 C-433.715 233.895 -432.511 233.897 -431.27 233.899 C-429.956 233.906 -428.642 233.913 -427.289 233.92 C-425.872 233.924 -424.455 233.927 -423.038 233.93 C-419.961 233.938 -416.883 233.948 -413.806 233.962 C-408.797 233.983 -403.789 233.997 -398.781 234.01 C-392.451 234.028 -386.12 234.047 -379.79 234.068 C-367.341 234.11 -354.892 234.138 -342.444 234.161 C-340.482 234.164 -338.521 234.168 -336.56 234.172 C-333.587 234.177 -330.615 234.183 -327.642 234.188 C-316.437 234.209 -305.232 234.231 -294.026 234.254 C-293.002 234.256 -291.978 234.258 -290.923 234.261 C-274.344 234.296 -257.765 234.349 -241.187 234.409 C-224.15 234.469 -207.114 234.507 -190.078 234.524 C-179.579 234.535 -169.081 234.565 -158.583 234.618 C-151.379 234.653 -144.175 234.666 -136.97 234.661 C-132.82 234.66 -128.671 234.667 -124.521 234.702 C-87.478 234.994 -87.478 234.994 -77.246 225.424 C-76.505 224.624 -75.764 223.824 -75 223 C-74.285 222.319 -73.569 221.639 -72.832 220.938 C-72.499 220.618 -72.499 220.618 -70.812 219 C-70.138 218.361 -69.464 217.721 -68.77 217.062 C-62.452 209.7 -63.8 197.712 -63.75 188.562 C-63.729 187.583 -63.709 186.604 -63.688 185.596 C-63.682 184.658 -63.677 183.72 -63.672 182.754 C-63.667 182.333 -63.667 182.333 -63.644 180.201 C-64.1 177.383 -64.713 176.694 -67 175 C-69.8 174.63 -69.8 174.63 -73.283 174.636 C-73.925 174.634 -74.568 174.631 -75.23 174.628 C-77.399 174.622 -79.567 174.637 -81.736 174.653 C-83.3 174.653 -84.865 174.652 -86.429 174.649 C-90.74 174.646 -95.05 174.662 -99.361 174.681 C-104.005 174.698 -108.649 174.698 -113.293 174.7 C-121.344 174.705 -129.395 174.721 -137.445 174.744 C-149.088 174.777 -160.73 174.792 -172.372 174.802 C-191.262 174.818 -210.152 174.846 -229.043 174.884 C-229.608 174.885 -229.608 174.885 -232.471 174.89 C-237.055 174.899 -241.639 174.908 -246.223 174.917 C-258.844 174.942 -271.466 174.965 -284.088 174.986 C-285.218 174.988 -286.348 174.99 -287.512 174.992 C-306.332 175.024 -325.151 175.047 -343.97 175.066 C-355.589 175.078 -367.207 175.098 -378.825 175.128 C-386.78 175.148 -394.735 175.161 -402.69 175.168 C-407.286 175.173 -411.881 175.181 -416.477 175.198 C-420.678 175.213 -424.879 175.22 -429.08 175.218 C-430.605 175.22 -432.131 175.224 -433.656 175.233 C-435.719 175.244 -437.781 175.242 -439.843 175.238 C-440.992 175.24 -442.141 175.242 -443.325 175.245 C-446 175 -446 175 -448 173 C-450.103 159.359 -450.024 144.542 -444 132 C-443.367 130.357 -442.742 128.711 -442.125 127.062 C-439.121 119.576 -435.783 112.678 -430 107 C-429.711 106.453 -429.711 106.453 -428.25 103.688 C-426.177 99.875 -423.399 97.505 -420.086 94.758 C-416.856 92.036 -413.955 89.012 -411 86 C-410.113 85.134 -409.226 84.267 -408.312 83.375 C-406 81 -406 81 -404.188 78.562 C-400.834 74.634 -396.642 71.151 -391.875 69.074 C-390 68 -390 68 -389.144 66.206 C-387.741 63.501 -385.993 61.768 -383.824 59.629 C-382.996 58.807 -382.168 57.985 -381.314 57.139 C-380.448 56.289 -379.581 55.438 -378.688 54.562 C-377.832 53.716 -376.977 52.87 -376.096 51.998 C-374.449 50.369 -372.8 48.742 -371.148 47.118 C-369.457 45.45 -367.778 43.772 -366.109 42.082 C-364.321 40.317 -362.512 38.705 -360.562 37.125 C-357.396 34.47 -354.82 31.558 -352.262 28.32 C-352.054 28.102 -352.054 28.102 -351 27 C-350.34 27 -349.68 27 -349 27 C-348.773 26.43 -348.546 25.86 -348.312 25.273 C-341.666 13.761 -324.641 7.008 -313 2 C-312.31 1.669 -311.621 1.339 -310.91 0.998 C-304.033 -2.097 -298.071 -2.573 -290.594 -2.526 C-289.987 -2.53 -289.987 -2.53 -286.916 -2.551 C-283.573 -2.569 -280.231 -2.57 -276.888 -2.563 C-273.273 -2.561 -269.658 -2.581 -266.043 -2.598 C-258.974 -2.628 -251.904 -2.637 -244.835 -2.639 C-236.599 -2.643 -228.364 -2.668 -220.129 -2.694 C-205.438 -2.74 -190.747 -2.767 -176.055 -2.784 C-161.801 -2.8 -147.547 -2.827 -133.293 -2.868 C-132.853 -2.869 -132.853 -2.869 -130.63 -2.876 C-127.098 -2.886 -123.566 -2.896 -120.034 -2.906 C-106.443 -2.944 -92.853 -2.975 -79.263 -3.004 C-75.158 -3.012 -71.053 -3.021 -66.949 -3.031 C-58.321 -3.052 -49.694 -3.069 -41.066 -3.078 C-37.499 -3.081 -33.932 -3.086 -30.365 -3.096 C-26.5 -3.106 -22.636 -3.108 -18.771 -3.109 C-17.641 -3.113 -16.511 -3.117 -15.346 -3.122 C-14.311 -3.121 -13.276 -3.12 -12.21 -3.119 C-11.318 -3.12 -10.426 -3.121 -9.507 -3.122 C-2.795 -2.795 -2.795 -2.795 0 0 Z " fill="currentColor" transform="translate(1163,244)"/>
</svg>
