<svg xmlns="http://www.w3.org/2000/svg" viewBox="0 0 96 96">
  <rect width="96" height="96" rx="20" fill="#0d0f16"/>
  <svg x="16" y="27" width="64" height="42" viewBox="163 191.5 609 395" preserveAspectRatio="xMidYMid meet">
    <path d="M0 0 C6.103 -0.012 12.206 -0.022 18.309 -0.027 C20.159 -0.029 22.009 -0.032 23.859 -0.035 C57.709 -0.093 57.709 -0.093 67.852 1.007 C71.533 4.688 70.014 16.633 70.02 21.659 C70.023 22.64 70.026 23.622 70.03 24.633 C70.035 26.689 70.037 28.745 70.037 30.802 C70.039 33.959 70.057 37.117 70.076 40.274 C70.079 42.277 70.081 44.281 70.082 46.284 C70.089 47.23 70.097 48.176 70.104 49.15 C70.101 50.022 70.098 50.893 70.095 51.792 C70.096 52.559 70.097 53.327 70.099 54.118 C69.852 56.007 69.852 56.007 67.852 58.007 C64.949 58.332 62.143 58.523 59.229 58.627 C58.305 58.664 57.381 58.702 56.429 58.741 C43.325 59.212 30.209 59.126 17.099 59.093 C13.148 59.085 9.197 59.082 5.247 59.079 C-1.576 59.073 -8.399 59.063 -15.221 59.051 C-25.097 59.034 -34.973 59.025 -44.849 59.017 C-60.894 59.005 -76.938 58.991 -92.983 58.972 C-93.462 58.972 -93.462 58.972 -95.884 58.969 C-109.492 58.953 -123.1 58.935 -136.707 58.915 C-137.668 58.914 -138.628 58.912 -139.617 58.911 C-140.576 58.909 -141.535 58.908 -142.523 58.906 C-158.526 58.883 -174.529 58.868 -190.532 58.859 C-200.382 58.853 -210.233 58.841 -220.084 58.82 C-226.827 58.806 -233.571 58.8 -240.315 58.799 C-244.201 58.798 -248.087 58.794 -251.973 58.782 C-255.535 58.77 -259.097 58.768 -262.66 58.773 C-264.547 58.773 -266.433 58.763 -268.32 58.753 C-278.128 58.782 -287.14 58.952 -295.148 65.007 C-295.829 65.151 -296.51 65.295 -297.211 65.444 C-300.342 66.353 -301.961 68.659 -304.148 71.007 C-305.015 71.832 -305.881 72.657 -306.773 73.507 C-312.851 79.904 -315.546 86.963 -315.441 95.69 C-315.439 96.04 -315.439 96.04 -315.428 97.813 C-315.412 100.024 -315.374 102.233 -315.336 104.444 C-315.321 105.954 -315.307 107.464 -315.295 108.973 C-315.262 112.651 -315.21 116.329 -315.148 120.007 C-314.461 119.936 -313.773 119.866 -313.064 119.793 C-304.623 119.002 -296.241 118.855 -287.768 118.853 C-286.244 118.849 -284.719 118.844 -283.194 118.839 C-279.035 118.828 -274.876 118.822 -270.717 118.817 C-266.22 118.811 -261.723 118.8 -257.226 118.789 C-246.391 118.765 -235.556 118.75 -224.721 118.737 C-221.66 118.733 -218.599 118.729 -215.538 118.725 C-196.518 118.7 -177.498 118.678 -158.478 118.665 C-154.082 118.663 -149.687 118.66 -145.291 118.657 C-144.199 118.656 -143.106 118.655 -141.981 118.654 C-124.247 118.642 -106.514 118.608 -88.78 118.567 C-70.565 118.524 -52.35 118.501 -34.135 118.496 C-23.911 118.492 -13.687 118.48 -3.462 118.447 C5.235 118.419 13.932 118.408 22.629 118.42 C27.067 118.425 31.505 118.422 35.943 118.397 C40.003 118.375 44.063 118.375 48.124 118.394 C49.594 118.397 51.065 118.391 52.536 118.377 C54.532 118.358 56.527 118.372 58.523 118.389 C59.632 118.387 60.742 118.386 61.885 118.384 C65.822 119.21 67.337 120.942 69.852 124.007 C70.466 126.403 70.466 126.403 70.451 128.917 C70.457 129.865 70.463 130.812 70.469 131.789 C70.46 132.295 70.46 132.295 70.41 134.854 C70.408 135.903 70.406 136.952 70.403 138.033 C70.393 140.246 70.372 142.459 70.339 144.672 C70.289 148.061 70.277 151.448 70.272 154.837 C70.257 156.988 70.241 159.14 70.223 161.292 C70.217 162.305 70.212 163.319 70.207 164.363 C70.191 165.308 70.175 166.252 70.158 167.226 C70.147 168.054 70.137 168.883 70.126 169.737 C69.823 172.247 69.191 173.87 67.852 176.007 C65.075 177.395 62.82 177.137 59.711 177.143 C58.392 177.147 57.073 177.152 55.714 177.157 C54.236 177.158 52.759 177.158 51.281 177.158 C49.722 177.162 48.163 177.166 46.605 177.171 C42.305 177.183 38.006 177.188 33.706 177.193 C29.076 177.199 24.445 177.21 19.814 177.221 C11.786 177.24 3.757 177.254 -4.272 177.267 C-15.884 177.285 -27.496 177.31 -39.107 177.336 C-57.949 177.379 -76.791 177.418 -95.633 177.454 C-96.762 177.457 -97.891 177.459 -99.053 177.461 C-107.064 177.476 -115.075 177.491 -123.086 177.507 C-132.235 177.524 -141.384 177.541 -150.533 177.559 C-151.096 177.56 -151.096 177.56 -153.948 177.565 C-172.716 177.602 -191.485 177.641 -210.253 177.684 C-221.84 177.71 -233.427 177.733 -245.013 177.751 C-252.949 177.764 -260.884 177.78 -268.819 177.799 C-273.403 177.81 -277.986 177.819 -282.57 177.824 C-286.761 177.828 -290.952 177.837 -295.144 177.849 C-296.664 177.853 -298.185 177.855 -299.706 177.855 C-301.765 177.856 -303.823 177.863 -305.881 177.871 C-306.454 177.872 -306.454 177.872 -309.354 177.877 C-312.148 178.007 -312.148 178.007 -315.148 179.007 C-315.248 183.008 -315.32 187.01 -315.368 191.012 C-315.388 192.371 -315.415 193.73 -315.45 195.088 C-315.791 208.74 -315.791 208.74 -311.148 215.007 C-310.715 216.182 -310.282 217.358 -309.836 218.569 C-308.001 222.306 -306.191 224.045 -302.965 226.55 C-301.148 228.007 -301.148 228.007 -299.43 229.928 C-291.17 237.453 -278.845 237.722 -268.325 237.588 C-266.885 237.588 -265.445 237.59 -264.005 237.594 C-260.09 237.6 -256.176 237.574 -252.26 237.543 C-248.023 237.515 -243.785 237.516 -239.547 237.514 C-232.217 237.507 -224.888 237.481 -217.558 237.444 C-206.955 237.39 -196.353 237.366 -185.75 237.351 C-168.537 237.325 -151.325 237.28 -134.112 237.219 C-133.084 237.215 -132.055 237.212 -130.996 237.208 C-128.914 237.201 -126.832 237.193 -124.75 237.186 C-123.718 237.182 -122.686 237.179 -121.622 237.175 C-121.106 237.173 -121.106 237.173 -118.492 237.164 C-106.998 237.124 -95.504 237.089 -84.011 237.055 C-83.496 237.053 -83.496 237.053 -80.89 237.046 C-63.728 236.996 -46.566 236.958 -29.404 236.928 C-18.823 236.908 -8.243 236.877 2.337 236.83 C9.578 236.798 16.818 236.777 24.058 236.764 C28.237 236.756 32.416 236.743 36.595 236.716 C40.418 236.692 44.241 236.682 48.065 236.683 C49.449 236.681 50.834 236.673 52.218 236.66 C54.098 236.644 55.977 236.647 57.856 236.651 C58.901 236.648 59.946 236.644 61.022 236.64 C64.323 237.068 66.189 238.035 68.852 240.007 C70.771 243.584 70.92 246.265 70.387 250.171 C69.877 254.799 69.784 259.375 69.824 264.026 C69.83 264.738 69.835 265.45 69.841 266.183 C69.869 269.149 69.904 272.114 69.948 275.08 C69.978 277.27 69.996 279.461 70.012 281.651 C70.02 282.298 70.02 282.298 70.063 285.568 C69.856 288.933 69.522 291.091 67.852 294.007 C64.88 295.874 62.595 296.257 59.118 296.261 C58.164 296.267 57.209 296.273 56.226 296.279 C55.181 296.275 54.136 296.271 53.058 296.267 C52.502 296.269 52.502 296.269 49.686 296.279 C45.942 296.289 42.199 296.285 38.455 296.281 C35.776 296.286 33.097 296.291 30.418 296.297 C23.884 296.31 17.35 296.311 10.817 296.309 C5.498 296.307 0.18 296.309 -5.138 296.313 C-5.895 296.314 -6.652 296.314 -7.433 296.315 C-8.971 296.316 -10.51 296.317 -12.048 296.319 C-26.488 296.33 -40.929 296.327 -55.369 296.321 C-68.545 296.316 -81.72 296.327 -94.895 296.346 C-108.443 296.366 -121.991 296.374 -135.539 296.37 C-143.137 296.368 -150.735 296.371 -158.333 296.385 C-164.811 296.397 -171.289 296.398 -177.767 296.386 C-181.064 296.38 -184.361 296.381 -187.659 296.391 C-200.785 296.43 -213.431 296.146 -226.349 293.68 C-229.726 293.081 -232.914 292.787 -236.336 292.694 C-241.126 292.339 -243.664 290.622 -247.266 287.546 C-249.114 286.035 -250.804 285.073 -252.961 284.069 C-262.852 279.286 -270.582 273.06 -278.402 265.425 C-281.946 261.98 -285.479 258.964 -289.553 256.169 C-292.024 254.369 -294.049 252.22 -296.148 250.007 C-298.12 247.979 -300.104 245.962 -302.086 243.944 C-302.336 243.686 -302.336 243.686 -303.6 242.38 C-306.864 239.073 -310.214 236.522 -314.148 234.007 C-315.838 232.364 -317.501 230.692 -319.148 229.007 C-326.707 221.957 -334.595 215.308 -342.766 208.979 C-344.933 207.185 -346.666 205.412 -348.461 203.257 C-353.916 196.892 -359.788 191.135 -366.289 185.843 C-370.639 181.547 -372.866 176.655 -374.836 170.944 C-375.044 170.351 -375.044 170.351 -376.098 167.346 C-380.86 152.209 -379.636 133.551 -372.523 119.444 C-364.475 105.737 -352.393 93.721 -339.148 85.007 C-338.746 84.522 -338.746 84.522 -336.711 82.069 C-334.224 79.097 -331.939 77.294 -328.773 75.159 C-327.148 74.007 -327.148 74.007 -325.086 71.944 C-322.678 69.536 -319.997 67.867 -317.148 66.007 C-313.949 63.709 -311.472 61.261 -308.961 58.257 C-305.613 54.337 -301.906 51.299 -297.84 48.151 C-292.185 43.646 -286.833 38.721 -281.75 33.581 C-274.361 26.27 -266.334 18.957 -257.148 14.007 C-256.218 13.495 -255.287 12.983 -254.328 12.456 C-252.412 11.408 -250.492 10.368 -248.566 9.339 C-246.148 8.007 -246.148 8.007 -243.148 6.007 C-241.205 5.453 -239.243 4.959 -237.273 4.507 C-231.497 3.175 -231.497 3.175 -229.009 1.975 C-225.135 0.664 -221.419 0.719 -217.377 0.728 C-216.935 0.725 -216.935 0.725 -214.699 0.711 C-211.735 0.694 -208.772 0.691 -205.808 0.688 C-203.682 0.678 -201.556 0.668 -199.429 0.657 C-193.64 0.63 -187.85 0.615 -182.06 0.602 C-175.961 0.586 -169.863 0.559 -163.764 0.534 C-152.161 0.487 -140.559 0.45 -128.956 0.417 C-115.93 0.379 -102.905 0.33 -89.88 0.279 C-59.92 0.164 -29.96 0.063 0 0 Z " fill="#ffffff" transform="translate(622.1483397483826,240.99335956573486)"/>
  </svg>
</svg>